<svg xmlns="http://www.w3.org/2000/svg" width="19.542" height="24" viewBox="0 0 19.542 24"><path d="M29.742,14.633a5.305,5.305,0,0,0,3.221,4.856A13.134,13.134,0,0,1,31.3,22.9c-1,1.462-2.039,2.919-3.674,2.949-1.607.029-2.124-.953-3.961-.953s-2.411.923-3.932.983c-1.579.06-2.781-1.581-3.789-3.038-2.061-2.98-3.636-8.42-1.521-12.092a5.875,5.875,0,0,1,4.966-3.008c1.55-.03,3.013,1.043,3.961,1.043s2.725-1.29,4.594-1.1a5.606,5.606,0,0,1,4.39,2.381,5.429,5.429,0,0,0-2.593,4.567m-3.02-8.919A5.287,5.287,0,0,0,27.97,1.883,5.379,5.379,0,0,0,24.435,3.7a5.023,5.023,0,0,0-1.273,3.712,4.451,4.451,0,0,0,3.56-1.7" transform="translate(-13.421 -1.883)"/></svg>