<svg xmlns="http://www.w3.org/2000/svg" width="13.988" height="13.988" viewBox="0 0 13.988 13.988">
    <path id="Path" d="M13.773,3.161a.736.736,0,0,1,0,1.041L4.2,13.773a.736.736,0,0,1-.521.216H.736A.736.736,0,0,1,0,13.252V10.307a.736.736,0,0,1,.216-.521L9.787.216a.736.736,0,0,1,1.041,1.041L1.472,10.612v1.9h1.9l9.355-9.355A.736.736,0,0,1,13.773,3.161Z" transform="translate(0 0)"/>
    <path id="Path-2" d="M.216.216a.736.736,0,0,1,1.041,0L4.2,3.161A.736.736,0,0,1,3.161,4.2L.216,1.257A.736.736,0,0,1,.216.216Z" transform="translate(9.571 0)"/>
    <path id="Path-3" d="M2.945,3.986,0,1.041,1.041,0,3.986,2.945Z" transform="translate(7.578 2.424)"/>
</svg>
