<svg width="27" height="27" viewBox="0 0 27 27" fill="none" xmlns="http://www.w3.org/2000/svg">
    <path d="M26.2767 13.8616C26.2767 20.4195 21.472 25.855 15.1912 26.8404V17.6594H18.2526L18.8351 13.8616H15.1912V11.3972C15.1912 10.3579 15.7003 9.34532 17.3324 9.34532H18.989V6.11205C18.989 6.11205 17.4853 5.85544 16.0478 5.85544C13.047 5.85544 11.0855 7.67428 11.0855 10.9671V13.8616H7.74958V17.6594H11.0855V26.8404C4.80474 25.855 0 20.4195 0 13.8616C0 6.60576 5.8825 0.723267 13.1384 0.723267C20.3942 0.723267 26.2767 6.60576 26.2767 13.8616Z" fill="#1877F2"/>
    <path d="M18.2525 17.6594L18.835 13.8616H15.1912V11.3971C15.1912 10.3581 15.7002 9.34529 17.3323 9.34529H18.989V6.11202C18.989 6.11202 17.4855 5.85541 16.048 5.85541C13.0469 5.85541 11.0854 7.67425 11.0854 10.9671V13.8616H7.74951V17.6594H11.0854V26.8403C11.7544 26.9453 12.4399 27 13.1383 27C13.8367 27 14.5222 26.9453 15.1912 26.8403V17.6594H18.2525Z" fill="white"/>
</svg>
