<svg xmlns="http://www.w3.org/2000/svg" width="16" height="18" viewBox="0 0 16 18">
    <path id="Shape" d="M3,6A3,3,0,1,1,6,3,3,3,0,0,1,3,6ZM3,2A1,1,0,1,0,4,3,1,1,0,0,0,3,2Z" transform="translate(0 3)"/>
    <path id="Shape-2" d="M3,6A3,3,0,1,1,6,3,3,3,0,0,1,3,6ZM3,2A1,1,0,1,0,4,3,1,1,0,0,0,3,2Z" transform="translate(10 9)"/>
    <path id="Path" d="M1,0A1,1,0,0,1,2,1v9a1,1,0,0,1-2,0V1A1,1,0,0,1,1,0Z" transform="translate(2 7)"/>
    <path id="Path-2" d="M1,0A1,1,0,0,1,2,1V4A1,1,0,0,1,0,4V1A1,1,0,0,1,1,0Z" transform="translate(2)"/>
    <path id="Path-3" d="M1,0A1,1,0,0,1,2,1V4A1,1,0,0,1,0,4V1A1,1,0,0,1,1,0Z" transform="translate(12 13)"/>
    <path id="Path-4" d="M1,0A1,1,0,0,1,2,1v9a1,1,0,0,1-2,0V1A1,1,0,0,1,1,0Z" transform="translate(12)"/>
</svg>
