<svg width="26" height="26" viewBox="0 0 26 26" fill="none" xmlns="http://www.w3.org/2000/svg">
    <path d="M5.87097 15.8354L4.94885 19.2202L1.57854 19.2903C0.571316 17.4534 0 15.3517 0 13.1184C0 10.9588 0.534167 8.92221 1.48101 7.12897H1.48174L4.48226 7.66985L5.79667 10.6024C5.52157 11.391 5.37162 12.2375 5.37162 13.1184C5.37173 14.0744 5.54785 14.9904 5.87097 15.8354Z" fill="#FBBB00"/>
    <path d="M25.7753 10.4839C25.9231 11.2712 26.0001 12.0842 26.0001 12.9152C26.0001 13.847 25.9033 14.7559 25.7188 15.6326C25.0926 18.6159 23.4564 21.221 21.1898 23.0645L21.1891 23.0638L17.5188 22.8743L16.9993 19.5935C18.5033 18.701 19.6787 17.3045 20.2979 15.6326H13.4194V10.4839H20.3982H25.7753Z" fill="#518EF8"/>
    <path d="M21.3862 23.0826L21.3869 23.0834C19.1454 24.9082 16.298 26 13.1983 26C8.2172 26 3.88647 23.1802 1.67725 19.0304L5.916 15.5162C7.02059 18.502 9.8644 20.6275 13.1983 20.6275C14.6314 20.6275 15.9739 20.2351 17.1259 19.5502L21.3862 23.0826Z" fill="#28B446"/>
    <path d="M21.3869 2.99151L17.2041 6.43781C16.0271 5.69744 14.6359 5.26975 13.1454 5.26975C9.77976 5.26975 6.92 7.45019 5.88423 10.4839L1.67795 7.01828H1.67725C3.82616 2.84872 8.15514 0 13.1454 0C16.2782 0 19.1508 1.12308 21.3869 2.99151Z" fill="#F14336"/>
</svg>
