<svg width="28" height="25" viewBox="0 0 28 25" fill="none" xmlns="http://www.w3.org/2000/svg">
    <path d="M28 23.8641C28 24.1654 27.8771 24.4543 27.6583 24.6673C27.4395 24.8803 27.1428 25 26.8333 25H1.16667C0.857247 25 0.560501 24.8803 0.341709 24.6673C0.122916 24.4543 0 24.1654 0 23.8641C0 23.5628 0.122916 23.2739 0.341709 23.0609C0.560501 22.8479 0.857247 22.7282 1.16667 22.7282H26.8333C27.1428 22.7282 27.4395 22.8479 27.6583 23.0609C27.8771 23.2739 28 23.5628 28 23.8641ZM2.33333 20.4564H25.6667C25.9761 20.4564 26.2728 20.3367 26.4916 20.1237C26.7104 19.9107 26.8333 19.6218 26.8333 19.3205V18.1846C26.8291 15.0692 25.6307 12.0675 23.4729 9.7672C21.315 7.46685 18.353 6.03348 15.1667 5.74769V4.23922C15.6115 3.98917 15.9592 3.6032 16.1557 3.14117C16.3523 2.67914 16.3868 2.16687 16.2538 1.68381C16.1209 1.20075 15.8279 0.773899 15.4204 0.469458C15.0129 0.165017 14.5136 0 14 0C13.4864 0 12.9871 0.165017 12.5796 0.469458C12.1721 0.773899 11.8791 1.20075 11.7462 1.68381C11.6132 2.16687 11.6477 2.67914 11.8443 3.14117C12.0408 3.6032 12.3885 3.98917 12.8333 4.23922V5.74769C9.64704 6.03348 6.68502 7.46685 4.52714 9.7672C2.36926 12.0675 1.1709 15.0692 1.16667 18.1846V19.3205C1.16667 19.6218 1.28958 19.9107 1.50838 20.1237C1.72717 20.3367 2.02391 20.4564 2.33333 20.4564Z" fill="#FD5039"/>
</svg>
