<svg width="25" height="28" viewBox="0 0 25 28" fill="none" xmlns="http://www.w3.org/2000/svg">
<path d="M2.08333 16.9271H11.4583V27.0833H7.29167C5.91033 27.0833 4.58557 26.4889 3.60882 25.4307C2.63207 24.3726 2.08333 22.9374 2.08333 21.441V16.9271ZM25 12.4132C25 13.0118 24.7805 13.5858 24.3898 14.0091C23.9991 14.4324 23.4692 14.6701 22.9167 14.6701H13.5417V10.1077C13.1917 10.1371 12.8427 10.1562 12.5 10.1562C12.1573 10.1562 11.8083 10.1371 11.4583 10.1077V14.6701H2.08333C1.5308 14.6701 1.0009 14.4324 0.610194 14.0091C0.219493 13.5858 0 13.0118 0 12.4132C0 11.216 0.438987 10.0679 1.22039 9.22139C2.00179 8.37487 3.0616 7.89931 4.16667 7.89931H5.97708C5.38812 7.33687 4.92062 6.64092 4.60775 5.86083C4.29487 5.08074 4.14428 4.23562 4.16667 3.38542C4.16667 3.08613 4.27641 2.7991 4.47176 2.58747C4.66711 2.37584 4.93207 2.25694 5.20833 2.25694C5.4846 2.25694 5.74955 2.37584 5.9449 2.58747C6.14025 2.7991 6.25 3.08613 6.25 3.38542C6.25 6.34427 8.71979 7.36892 10.5979 7.71988C9.90471 6.38834 9.4874 4.90927 9.375 3.38542C9.375 2.48755 9.70424 1.62645 10.2903 0.991566C10.8763 0.356677 11.6712 0 12.5 0C13.3288 0 14.1237 0.356677 14.7097 0.991566C15.2958 1.62645 15.625 2.48755 15.625 3.38542C15.5126 4.90927 15.0953 6.38834 14.4021 7.71988C16.2802 7.36892 18.75 6.34427 18.75 3.38542C18.75 3.08613 18.8597 2.7991 19.0551 2.58747C19.2504 2.37584 19.5154 2.25694 19.7917 2.25694C20.0679 2.25694 20.3329 2.37584 20.5282 2.58747C20.7236 2.7991 20.8333 3.08613 20.8333 3.38542C20.8557 4.23562 20.7051 5.08074 20.3923 5.86083C20.0794 6.64092 19.6119 7.33687 19.0229 7.89931H20.8333C21.9384 7.89931 22.9982 8.37487 23.7796 9.22139C24.561 10.0679 25 11.216 25 12.4132ZM11.4583 3.38542C11.5841 4.58479 11.9388 5.74269 12.5 6.7855C13.0612 5.74269 13.4159 4.58479 13.5417 3.38542C13.5417 3.08613 13.4319 2.7991 13.2366 2.58747C13.0412 2.37584 12.7763 2.25694 12.5 2.25694C12.2237 2.25694 11.9588 2.37584 11.7634 2.58747C11.5681 2.7991 11.4583 3.08613 11.4583 3.38542ZM13.5417 27.0833H17.7083C18.3923 27.0833 19.0696 26.9374 19.7015 26.6538C20.3334 26.3703 20.9075 25.9547 21.3912 25.4307C21.8748 24.9068 22.2585 24.2848 22.5202 23.6002C22.7819 22.9156 22.9167 22.1819 22.9167 21.441V16.9271H13.5417V27.0833Z" fill="#D9D9D9"/>
</svg>
