<svg xmlns="http://www.w3.org/2000/svg" width="26.664" height="24.5" viewBox="0 0 26.664 24.5">
    <path id="Path_69" d="M16.934,28.86a1.077,1.077,0,0,1-.765-.312l-9.9-9.9a8.08,8.08,0,0,1,10.664-12.1A8.1,8.1,0,0,1,27.6,7.219h0a8.1,8.1,0,0,1,0,11.429l-9.9,9.9A1.077,1.077,0,0,1,16.934,28.86ZM11.978,7.014a5.881,5.881,0,0,0-4.19,1.734,5.946,5.946,0,0,0,0,8.381l9.145,9.135,9.145-9.135a5.946,5.946,0,0,0,0-8.381h0a5.925,5.925,0,0,0-8.381,0,1.077,1.077,0,0,1-1.53,0,5.881,5.881,0,0,0-4.19-1.734Z" transform="translate(-3.543 -4.61)" fill="#fff" stroke="#fff" stroke-width="0.5"/>
</svg>
