<svg xmlns="http://www.w3.org/2000/svg" width="21.6" height="24" viewBox="0 0 21.6 24">
    <path id="Path_4" d="M23.4,9.2h0l-7.2-6.3a3.6,3.6,0,0,0-4.8,0L4.2,9.2A3.594,3.594,0,0,0,3,11.9V22.38a3.6,3.6,0,0,0,3.6,3.6H21a3.6,3.6,0,0,0,3.6-3.6V11.893a3.594,3.594,0,0,0-1.2-2.7ZM16.2,23.579H11.4V17.586a1.2,1.2,0,0,1,1.2-1.2H15a1.2,1.2,0,0,1,1.2,1.2Zm6-1.2a1.2,1.2,0,0,1-1.2,1.2H18.6V17.586a3.6,3.6,0,0,0-3.6-3.6H12.6a3.6,3.6,0,0,0-3.6,3.6v5.993H6.6a1.2,1.2,0,0,1-1.2-1.2V11.893a1.2,1.2,0,0,1,.408-.9l7.2-6.292a1.2,1.2,0,0,1,1.584,0l7.2,6.292a1.2,1.2,0,0,1,.408.9Z" transform="translate(-3 -1.976)" fill="#fff"/>
</svg>
