<svg xmlns="http://www.w3.org/2000/svg" width="24" height="24" viewBox="0 0 24 24">
    <path id="Path_66" d="M12.5.5a12,12,0,1,0,12,12A12.013,12.013,0,0,0,12.5.5Zm0,21.677a9.632,9.632,0,0,1-6.6-2.62,5.677,5.677,0,0,1,1.259-1.568,8.117,8.117,0,0,1,5.342-1.9,7.779,7.779,0,0,1,6,2.586,5.093,5.093,0,0,1,.593.886A9.631,9.631,0,0,1,12.5,22.177Zm8.164-4.5a9.884,9.884,0,0,0-8.164-3.9,9.838,9.838,0,0,0-8.158,3.915A9.673,9.673,0,1,1,22.177,12.5,9.609,9.609,0,0,1,20.664,17.674Z" transform="translate(-0.5 -0.5)" fill="#fff"/>
    <path id="Path_67" d="M14.24,6.025A3.215,3.215,0,1,0,17.455,9.24,3.218,3.218,0,0,0,14.24,6.025Zm0,4.491A1.276,1.276,0,1,1,15.516,9.24,1.277,1.277,0,0,1,14.24,10.516Z" transform="translate(-2.24 -1.414)" fill="#fff"/>
</svg>
