<svg width="22" height="24" viewBox="0 0 22 24" fill="none" xmlns="http://www.w3.org/2000/svg">
    <path d="M22 22.564C22 22.8185 21.9034 23.0625 21.7315 23.2424C21.5596 23.4224 21.3264 23.5234 21.0833 23.5234H0.916667C0.673552 23.5234 0.440394 23.4224 0.268485 23.2424C0.0965771 23.0625 0 22.8185 0 22.564C0 22.3096 0.0965771 22.0655 0.268485 21.8856C0.440394 21.7057 0.673552 21.6046 0.916667 21.6046H21.0833C21.3264 21.6046 21.5596 21.7057 21.7315 21.8856C21.9034 22.0655 22 22.3096 22 22.564ZM3.4375 14.8887C4.4165 14.8887 5.04167 14.2584 5.04167 13.9293C5.04167 13.6749 5.13824 13.4308 5.31015 13.2509C5.48206 13.071 5.71522 12.9699 5.95833 12.9699C6.20145 12.9699 6.43461 13.071 6.60651 13.2509C6.77842 13.4308 6.875 13.6749 6.875 13.9293C6.875 14.2229 7.48092 14.8887 8.47917 14.8887C9.45817 14.8887 10.0833 14.2584 10.0833 13.9293C10.0833 13.6749 10.1799 13.4308 10.3518 13.2509C10.5237 13.071 10.7569 12.9699 11 12.9699C11.2431 12.9699 11.4763 13.071 11.6482 13.2509C11.8201 13.4308 11.9167 13.6749 11.9167 13.9293C11.9167 14.2229 12.5226 14.8887 13.5208 14.8887C14.4998 14.8887 15.125 14.2584 15.125 13.9293C15.125 13.6749 15.2216 13.4308 15.3935 13.2509C15.5654 13.071 15.7986 12.9699 16.0417 12.9699C16.2848 12.9699 16.5179 13.071 16.6898 13.2509C16.8618 13.4308 16.9583 13.6749 16.9583 13.9293C16.9583 14.2229 17.5643 14.8887 18.5625 14.8887C19.5608 14.8887 20.1667 14.2229 20.1667 13.9293C20.1652 12.6575 19.6819 11.4383 18.8226 10.539C17.9634 9.63967 16.7985 9.13377 15.5833 9.13225H11.9167V7.03689C12.451 6.83917 12.9139 6.47349 13.2421 5.98988C13.5703 5.50627 13.7477 4.92835 13.75 4.33519C13.5532 3.11289 13.0221 1.97651 12.221 1.06359C12.0624 0.892676 11.8727 0.756807 11.663 0.664025C11.4534 0.571244 11.2281 0.523438 11.0005 0.523438C10.7728 0.523437 10.5475 0.571244 10.3379 0.664025C10.1282 0.756807 9.93849 0.892676 9.77992 1.06359C8.97818 1.97617 8.44671 3.11267 8.25 4.33519C8.25235 4.92835 8.42974 5.50627 8.75791 5.98988C9.08608 6.47349 9.549 6.83917 10.0833 7.03689V9.13225H6.41667C5.20154 9.13377 4.03659 9.63967 3.17737 10.539C2.31814 11.4383 1.83479 12.6575 1.83333 13.9293C1.83333 14.2229 2.43925 14.8887 3.4375 14.8887ZM2.75 19.6858H19.25C19.4931 19.6858 19.7263 19.5847 19.8982 19.4048C20.0701 19.2249 20.1667 18.9808 20.1667 18.7264V16.4478C19.6615 16.6825 19.1152 16.805 18.5625 16.8076C17.6394 16.8149 16.7446 16.4743 16.0417 15.8481C15.3346 16.465 14.4438 16.8041 13.5233 16.8067C12.6028 16.8093 11.7103 16.4754 11 15.8625C10.2897 16.4754 9.39721 16.8093 8.47669 16.8067C7.55616 16.8041 6.66542 16.465 5.95833 15.8481C5.25536 16.4743 4.36058 16.8149 3.4375 16.8076C2.88476 16.805 2.33852 16.6825 1.83333 16.4478V18.7264C1.83333 18.9808 1.92991 19.2249 2.10182 19.4048C2.27373 19.5847 2.50688 19.6858 2.75 19.6858Z" fill="#FD5039"/>
</svg>
