<svg width="12" height="14" viewBox="0 0 12 14" fill="none" xmlns="http://www.w3.org/2000/svg">
    <path d="M11.4 2.33333H9.54C9.40074 1.67499 9.03229 1.08345 8.49675 0.658419C7.96121 0.233386 7.29132 0.000848473 6.6 0L5.4 0C4.70868 0.000848473 4.03879 0.233386 3.50325 0.658419C2.96771 1.08345 2.59926 1.67499 2.46 2.33333H0.6C0.44087 2.33333 0.288258 2.39479 0.175736 2.50419C0.0632141 2.61358 0 2.76196 0 2.91667C0 3.07138 0.0632141 3.21975 0.175736 3.32915C0.288258 3.43854 0.44087 3.5 0.6 3.5H1.2V11.0833C1.20095 11.8566 1.51733 12.5979 2.07973 13.1447C2.64213 13.6915 3.40464 13.9991 4.2 14H7.8C8.59536 13.9991 9.35787 13.6915 9.92027 13.1447C10.4827 12.5979 10.799 11.8566 10.8 11.0833V3.5H11.4C11.5591 3.5 11.7117 3.43854 11.8243 3.32915C11.9368 3.21975 12 3.07138 12 2.91667C12 2.76196 11.9368 2.61358 11.8243 2.50419C11.7117 2.39479 11.5591 2.33333 11.4 2.33333ZM5.4 1.16667H6.6C6.97216 1.16711 7.33508 1.27947 7.63897 1.48834C7.94286 1.69721 8.17285 1.99237 8.2974 2.33333H3.7026C3.82715 1.99237 4.05714 1.69721 4.36103 1.48834C4.66492 1.27947 5.02784 1.16711 5.4 1.16667ZM9.6 11.0833C9.6 11.5475 9.41036 11.9926 9.07279 12.3208C8.73523 12.649 8.27739 12.8333 7.8 12.8333H4.2C3.72261 12.8333 3.26477 12.649 2.92721 12.3208C2.58964 11.9926 2.4 11.5475 2.4 11.0833V3.5H9.6V11.0833Z" fill="black"/>
    <path d="M4.5 10C4.63261 10 4.75979 9.94732 4.85355 9.85355C4.94732 9.75979 5 9.63261 5 9.5V6.5C5 6.36739 4.94732 6.24021 4.85355 6.14645C4.75979 6.05268 4.63261 6 4.5 6C4.36739 6 4.24021 6.05268 4.14645 6.14645C4.05268 6.24021 4 6.36739 4 6.5V9.5C4 9.63261 4.05268 9.75979 4.14645 9.85355C4.24021 9.94732 4.36739 10 4.5 10Z" fill="black"/>
    <path d="M7.5 10C7.63261 10 7.75979 9.94732 7.85355 9.85355C7.94732 9.75979 8 9.63261 8 9.5V6.5C8 6.36739 7.94732 6.24021 7.85355 6.14645C7.75979 6.05268 7.63261 6 7.5 6C7.36739 6 7.24021 6.05268 7.14645 6.14645C7.05268 6.24021 7 6.36739 7 6.5V9.5C7 9.63261 7.05268 9.75979 7.14645 9.85355C7.24021 9.94732 7.36739 10 7.5 10Z" fill="black"/>
</svg>
