<svg width="16" height="22" viewBox="0 0 16 22" fill="none" xmlns="http://www.w3.org/2000/svg">
    <path d="M4.44444 0C3.26614 0.00143662 2.1365 0.478507 1.30331 1.32657C0.470117 2.17462 0.00141143 3.32443 0 4.52376V20.8093C0.000125232 20.9739 0.0443435 21.1353 0.127895 21.2762C0.211446 21.417 0.331166 21.5321 0.474167 21.6088C0.617168 21.6856 0.778034 21.7213 0.939449 21.7119C1.10086 21.7025 1.25671 21.6485 1.39022 21.5557L3.26222 20.2538L5.13422 21.5557C5.28212 21.6588 5.45719 21.714 5.63644 21.714C5.8157 21.714 5.99077 21.6588 6.13867 21.5557L8.00533 20.2538L9.872 21.5557C10.02 21.659 10.1952 21.7143 10.3747 21.7143C10.5541 21.7143 10.7293 21.659 10.8773 21.5557L12.744 20.2547L14.6107 21.5548C14.7441 21.6473 14.8998 21.7011 15.061 21.7104C15.2222 21.7197 15.3828 21.6841 15.5257 21.6074C15.6685 21.5308 15.7881 21.416 15.8717 21.2754C15.9552 21.1348 15.9996 20.9736 16 20.8093V4.52376C15.9986 3.32443 15.5299 2.17462 14.6967 1.32657C13.8635 0.478507 12.7339 0.00143662 11.5556 0L4.44444 0ZM9.77778 12.6665H4.44444C4.2087 12.6665 3.9826 12.5712 3.81591 12.4015C3.64921 12.2319 3.55556 12.0017 3.55556 11.7618C3.55556 11.5218 3.64921 11.2917 3.81591 11.122C3.9826 10.9524 4.2087 10.857 4.44444 10.857H9.77778C10.0135 10.857 10.2396 10.9524 10.4063 11.122C10.573 11.2917 10.6667 11.5218 10.6667 11.7618C10.6667 12.0017 10.573 12.2319 10.4063 12.4015C10.2396 12.5712 10.0135 12.6665 9.77778 12.6665ZM12.4444 8.14277C12.4444 8.38273 12.3508 8.61285 12.1841 8.78253C12.0174 8.9522 11.7913 9.04752 11.5556 9.04752H4.44444C4.2087 9.04752 3.9826 8.9522 3.81591 8.78253C3.64921 8.61285 3.55556 8.38273 3.55556 8.14277C3.55556 7.90282 3.64921 7.67269 3.81591 7.50302C3.9826 7.33334 4.2087 7.23802 4.44444 7.23802H11.5556C11.7913 7.23802 12.0174 7.33334 12.1841 7.50302C12.3508 7.67269 12.4444 7.90282 12.4444 8.14277Z" fill="white"/>
</svg>
