<svg width="234" height="81" viewBox="0 0 234 81" fill="none" xmlns="http://www.w3.org/2000/svg">
    <g clip-path="url(#clip0_491_4)">
        <path d="M49.6878 27.8132C47.3824 26.7763 44.8343 26.1663 42.0436 25.8004C42.1042 25.7394 42.2256 25.6784 42.2862 25.6174C45.8657 22.9337 46.6544 17.7492 43.985 14.1505C42.7109 12.4427 40.7695 11.2838 38.6461 10.9788C36.5227 10.6739 34.2779 11.2228 32.6399 12.4427C31.7298 13.1136 30.2738 14.6385 28.7571 16.5903C27.6044 11.4668 25.1776 6.28231 23.7822 4.45249C22.0835 2.13472 19.4747 0.548876 16.5626 0.121918C13.6505 -0.30504 10.6777 0.426888 8.37231 2.13472C3.45813 5.79436 2.42676 12.8087 6.06689 17.7492C7.76562 20.0669 11.3451 23.2386 15.1672 25.5564H7.88696C3.5188 25.5564 0 29.0941 0 33.4856V73.3147C0 76.6694 2.66943 79.3531 6.00622 79.3531C9.34301 79.3531 12.0124 76.6694 12.0124 73.3147V61.9698H31.1838L44.2883 77.3403C45.3803 78.6212 46.9577 79.3531 48.5958 79.3531C53.4493 79.3531 56.1187 73.6197 52.9033 69.899L45.5017 61.1769C50.2339 60.14 53.9347 58.1272 56.6041 55.1385C59.2735 52.1498 60.6082 48.3072 60.6082 43.7326V43.4276C60.6082 39.89 59.6375 36.7793 57.7568 34.0956C55.8154 31.4118 53.146 29.338 49.6878 27.8132ZM36.826 16.9563C37.19 16.6513 37.7361 16.5293 38.2821 16.6513C38.8281 16.7123 39.3135 17.0173 39.6168 17.3832C40.2842 18.2981 40.1022 19.64 39.1921 20.3719C37.7361 21.4698 34.3993 22.8117 31.4265 23.6046C32.8826 21.1038 35.006 18.2981 36.826 16.9563ZM12.1945 12.0767C11.2844 10.7959 11.5271 8.96604 12.8011 8.05114C13.3472 7.68517 14.0752 7.50219 14.8032 7.62418C15.5312 7.74616 16.1986 8.11213 16.5626 8.60008C18.3827 11.1008 19.9601 15.5534 20.9308 19.396C17.4726 17.2002 13.6505 14.0895 12.1945 12.0767ZM46.7757 49.71C45.7444 50.8689 44.4096 51.6008 42.8323 51.9058C41.2549 52.1498 39.0101 52.3328 36.098 52.3328H35.9767H14.7425C13.2258 52.3328 12.0124 51.1129 12.0124 49.588V38.3041C12.0124 36.7793 13.2258 35.5594 14.7425 35.5594C21.0521 35.5594 27.0583 35.4984 32.7612 35.3154C33.6712 35.2544 34.7633 35.2544 36.098 35.2544C39.0101 35.2544 41.2549 35.3764 42.8323 35.6814C44.4096 35.9864 45.7444 36.7183 46.7757 37.9992C47.8071 39.28 48.3531 41.2929 48.3531 44.0376C48.2925 46.6603 47.8071 48.5511 46.7757 49.71Z" fill="white"/>
        <path d="M78.2628 25.6785C74.8654 25.6785 72.1353 28.4232 72.1353 31.8389V73.3758C72.1353 76.7914 74.8654 79.5361 78.2628 79.5361C81.6603 79.5361 84.3904 76.7914 84.3904 73.3758V31.8389C84.3904 28.4232 81.6603 25.6785 78.2628 25.6785Z" fill="white"/>
        <path d="M147.486 51.2959C150.095 50.32 152.036 48.8562 153.371 46.8434C154.645 44.8306 155.313 42.2688 155.313 39.1581V38.8532C155.313 34.7056 153.675 31.4729 150.338 29.1551C147.001 26.8983 142.572 25.7395 136.991 25.6785H103.441C99.0725 25.6785 95.5537 29.2161 95.5537 33.6077V71.6069C95.5537 75.9985 99.0725 79.5361 103.38 79.5361L130.074 79.5971H133.472H133.593C139.599 79.4752 144.392 79.1092 148.032 78.3773C151.672 77.6453 154.524 76.2425 156.647 74.0467C158.771 71.8509 159.802 68.6792 159.802 64.4706V64.1657C159.802 60.445 158.771 57.5783 156.708 55.5655C154.585 53.5527 151.551 52.0889 147.486 51.2959ZM107.263 37.2063C107.263 35.6815 108.476 34.4616 109.993 34.4616H132.319H132.44C135.11 34.4616 137.112 34.5836 138.507 34.7666C139.903 35.0105 141.055 35.5595 141.905 36.4134C142.754 37.3283 143.179 38.7922 143.179 40.805C143.179 43.0008 142.693 44.5256 141.783 45.5015C140.873 46.4164 139.721 47.0264 138.447 47.1483C137.112 47.3313 135.11 47.3923 132.38 47.3923H125.888L109.872 47.2093C108.355 47.2093 107.141 45.9895 107.141 44.4646V37.2063H107.263ZM145.606 67.9473C144.696 68.9842 143.421 69.6551 141.905 69.8991C140.327 70.1431 137.961 70.2651 134.867 70.2651H131.591C127.102 70.2041 119.882 70.1431 110.054 70.1431C108.537 70.1431 107.323 68.9232 107.323 67.3983V58.4932C107.323 56.9684 108.537 55.7485 110.054 55.7485H134.806H134.867C138.022 55.7485 140.327 55.8705 141.905 56.0535C143.482 56.2974 144.696 56.9074 145.606 57.8833C146.516 58.9202 147.001 60.567 147.001 62.8238C147.001 65.2026 146.516 66.9104 145.606 67.9473Z" fill="white"/>
        <path d="M227.933 25.6785H227.63C224.232 25.6785 221.502 28.4232 221.502 31.8389V54.6506C221.502 58.5542 220.471 61.7259 218.53 64.1047C216.527 66.4834 214.101 68.1913 211.31 69.1672C208.519 70.1431 205.85 70.631 203.362 70.631C200.632 70.631 197.72 70.1431 194.687 69.1672C191.653 68.1913 189.044 66.4834 186.8 64.1047C184.555 61.7259 183.463 58.5542 183.463 54.6506V31.8389C183.463 28.4232 180.733 25.6785 177.335 25.6785H176.971C173.574 25.6785 170.844 28.4232 170.844 31.8389V54.1017C170.904 59.2861 172.36 63.9217 175.333 68.0083C178.245 72.0949 182.189 75.2666 187.164 77.5843C192.078 79.8411 197.477 81 203.241 81C209.004 81 214.283 79.8411 218.954 77.5843C223.626 75.3276 227.327 72.1559 229.996 68.0693C232.665 63.9827 234 59.3471 234 54.0407V31.8389C234 28.4232 231.27 25.6785 227.933 25.6785Z" fill="white"/>
    </g>
    <defs>
        <clipPath id="clip0_491_4">
            <rect width="234" height="81" fill="white"/>
        </clipPath>
    </defs>
</svg>
