<svg width="14" height="14" viewBox="0 0 14 14" fill="none" xmlns="http://www.w3.org/2000/svg">
    <path d="M0 11.0835H13.9994C13.9994 12.6917 12.6911 14 11.0829 14H2.91655C1.30836 14 0 12.6917 0 11.0835ZM13.9994 6.41722V9.91697H0V6.41722C0 4.80909 1.30836 3.50077 2.91655 3.50077H3.64743C2.82088 2.68416 2.69955 1.63249 3.32836 0.794299C3.64626 0.370247 4.11 0.0955173 4.63439 0.0208561C5.15879 -0.0555549 5.68085 0.0797685 6.10491 0.397662C6.5004 0.693974 6.79205 1.07078 7.00729 1.45458C7.22253 1.07078 7.51419 0.69339 7.90967 0.397662C8.33315 0.0797685 8.85405 -0.0555549 9.38019 0.0208561C9.90459 0.0955173 10.3683 0.370247 10.6862 0.794299C11.3185 1.63715 11.192 2.69583 10.3683 3.50077H11.0835C12.6916 3.50077 13.9994 4.80909 13.9994 6.41722ZM7.58652 3.50077C7.66643 3.50077 8.63706 3.48035 9.55285 2.66783C9.77859 2.45259 10.1268 1.99238 9.75293 1.49366C9.62227 1.31926 9.43094 1.2061 9.21512 1.17519C9.00046 1.14661 8.78405 1.19969 8.60964 1.33093C7.86417 1.88972 7.64718 2.97464 7.59527 3.32345L7.59643 3.3357L7.58652 3.50077ZM6.42107 3.50077H6.42807C6.42807 3.50077 6.41873 3.32928 6.41932 3.32345C6.36799 2.97639 6.15041 1.8903 5.40436 1.33093C5.26145 1.2236 5.09112 1.16761 4.91613 1.16761C4.64197 1.16761 4.39232 1.31984 4.26107 1.49425C3.88717 1.99296 4.23599 2.45259 4.4769 2.68241C5.37228 3.47627 6.33824 3.50019 6.42048 3.50077H6.42107ZM10.4996 7.00051C10.4996 6.67795 10.2382 6.41722 9.91625 6.41722C9.82117 6.41722 7.58302 6.39739 7.58302 4.66735H6.4164C6.4164 6.37989 4.18933 6.41664 4.08258 6.41722C3.76059 6.41722 3.49985 6.67854 3.49985 7.00051C3.49985 7.32249 3.76118 7.5838 4.08316 7.5838C4.90971 7.5838 6.23966 7.29916 6.99971 6.38456C7.75976 7.29974 9.0897 7.5838 9.91625 7.5838C10.2382 7.5838 10.4996 7.32307 10.4996 7.00051Z" fill="#FD5039"/>
</svg>
