<svg width="12" height="13" viewBox="0 0 12 13" fill="none" xmlns="http://www.w3.org/2000/svg">
    <path d="M1 8.125H5.5V13H3.5C2.83696 13 2.20107 12.7147 1.73223 12.2067C1.26339 11.6988 1 11.01 1 10.2917V8.125ZM12 5.95833C12 6.24565 11.8946 6.5212 11.7071 6.72437C11.5196 6.92753 11.2652 7.04167 11 7.04167H6.5V4.85171C6.332 4.86579 6.1645 4.875 6 4.875C5.8355 4.875 5.668 4.86579 5.5 4.85171V7.04167H1C0.734784 7.04167 0.48043 6.92753 0.292893 6.72437C0.105357 6.5212 0 6.24565 0 5.95833C0 5.3837 0.210714 4.8326 0.585786 4.42627C0.960859 4.01994 1.46957 3.79167 2 3.79167H2.869C2.5863 3.5217 2.3619 3.18764 2.21172 2.8132C2.06154 2.43875 1.98926 2.0331 2 1.625C2 1.48134 2.05268 1.34357 2.14645 1.24198C2.24021 1.1404 2.36739 1.08333 2.5 1.08333C2.63261 1.08333 2.75979 1.1404 2.85355 1.24198C2.94732 1.34357 3 1.48134 3 1.625C3 3.04525 4.1855 3.53708 5.087 3.70554C4.75426 3.0664 4.55395 2.35645 4.5 1.625C4.5 1.19402 4.65804 0.780698 4.93934 0.475951C5.22064 0.171205 5.60218 0 6 0C6.39782 0 6.77936 0.171205 7.06066 0.475951C7.34196 0.780698 7.5 1.19402 7.5 1.625C7.44605 2.35645 7.24574 3.0664 6.913 3.70554C7.8145 3.53708 9 3.04525 9 1.625C9 1.48134 9.05268 1.34357 9.14645 1.24198C9.24021 1.1404 9.36739 1.08333 9.5 1.08333C9.63261 1.08333 9.75979 1.1404 9.85355 1.24198C9.94732 1.34357 10 1.48134 10 1.625C10.0107 2.0331 9.93846 2.43875 9.78828 2.8132C9.6381 3.18764 9.4137 3.5217 9.131 3.79167H10C10.5304 3.79167 11.0391 4.01994 11.4142 4.42627C11.7893 4.8326 12 5.3837 12 5.95833ZM5.5 1.625C5.56036 2.2007 5.73063 2.75649 6 3.25704C6.26937 2.75649 6.43964 2.2007 6.5 1.625C6.5 1.48134 6.44732 1.34357 6.35355 1.24198C6.25979 1.1404 6.13261 1.08333 6 1.08333C5.86739 1.08333 5.74021 1.1404 5.64645 1.24198C5.55268 1.34357 5.5 1.48134 5.5 1.625ZM6.5 13H8.5C8.8283 13 9.15339 12.9299 9.45671 12.7938C9.76002 12.6577 10.0356 12.4582 10.2678 12.2067C10.4999 11.9553 10.6841 11.6567 10.8097 11.3281C10.9353 10.9995 11 10.6473 11 10.2917V8.125H6.5V13Z" fill="#161616"/>
</svg>
