<svg width="22" height="24" viewBox="0 0 22 24" fill="none" xmlns="http://www.w3.org/2000/svg">
    <path d="M1.83333 14.8958H10.0833V23.8333H6.41667C5.20109 23.8333 4.0353 23.3102 3.17576 22.379C2.31622 21.4479 1.83333 20.1849 1.83333 18.8681V14.8958ZM22 10.9236C22 11.4504 21.8068 11.9555 21.463 12.328C21.1192 12.7005 20.6529 12.9097 20.1667 12.9097H11.9167V8.8948C11.6087 8.92062 11.3016 8.9375 11 8.9375C10.6984 8.9375 10.3913 8.92062 10.0833 8.8948V12.9097H1.83333C1.3471 12.9097 0.880788 12.7005 0.536971 12.328C0.193154 11.9555 0 11.4504 0 10.9236C0 9.87011 0.386308 8.85976 1.07394 8.11483C1.76158 7.36989 2.69421 6.95139 3.66667 6.95139H5.25983C4.74155 6.45645 4.33015 5.84401 4.05482 5.15753C3.77948 4.47105 3.64697 3.72734 3.66667 2.97917C3.66667 2.71579 3.76324 2.4632 3.93515 2.27697C4.10706 2.09074 4.34022 1.98611 4.58333 1.98611C4.82645 1.98611 5.05961 2.09074 5.23151 2.27697C5.40342 2.4632 5.5 2.71579 5.5 2.97917C5.5 5.58296 7.67342 6.48465 9.32617 6.79349C8.71614 5.62174 8.34892 4.32016 8.25 2.97917C8.25 2.18904 8.53973 1.43128 9.05546 0.872578C9.57118 0.313876 10.2707 0 11 0C11.7293 0 12.4288 0.313876 12.9445 0.872578C13.4603 1.43128 13.75 2.18904 13.75 2.97917C13.6511 4.32016 13.2839 5.62174 12.6738 6.79349C14.3266 6.48465 16.5 5.58296 16.5 2.97917C16.5 2.71579 16.5966 2.4632 16.7685 2.27697C16.9404 2.09074 17.1736 1.98611 17.4167 1.98611C17.6598 1.98611 17.8929 2.09074 18.0648 2.27697C18.2368 2.4632 18.3333 2.71579 18.3333 2.97917C18.353 3.72734 18.2205 4.47105 17.9452 5.15753C17.6699 5.84401 17.2585 6.45645 16.7402 6.95139H18.3333C19.3058 6.95139 20.2384 7.36989 20.9261 8.11483C21.6137 8.85976 22 9.87011 22 10.9236ZM10.0833 2.97917C10.194 4.03461 10.5062 5.05357 11 5.97124C11.4938 5.05357 11.806 4.03461 11.9167 2.97917C11.9167 2.71579 11.8201 2.4632 11.6482 2.27697C11.4763 2.09074 11.2431 1.98611 11 1.98611C10.7569 1.98611 10.5237 2.09074 10.3518 2.27697C10.1799 2.4632 10.0833 2.71579 10.0833 2.97917ZM11.9167 23.8333H15.5833C16.1852 23.8333 16.7812 23.7049 17.3373 23.4554C17.8934 23.2058 18.3986 22.8401 18.8242 22.379C19.2498 21.918 19.5874 21.3706 19.8178 20.7682C20.0481 20.1658 20.1667 19.5201 20.1667 18.8681V14.8958H11.9167V23.8333Z" fill="#FD5039"/>
</svg>
