<svg width="26" height="27" viewBox="0 0 26 27" fill="none" xmlns="http://www.w3.org/2000/svg">
    <path d="M23.479 16.1611C23.6404 15.8337 23.7509 15.4771 23.8018 15.1014C23.9242 14.2082 23.7054 13.3194 23.1843 12.5972C22.6632 11.8761 21.9027 11.4093 21.0435 11.2822C20.1855 11.1573 19.3286 11.3834 18.6341 11.9234C18.0848 12.3509 17.6612 12.8773 17.3341 13.4263C17.0069 12.8785 16.5833 12.3509 16.034 11.9234C15.3396 11.3834 14.4837 11.155 13.6246 11.2822C12.7654 11.4093 12.0049 11.8761 11.4827 12.5984C10.9627 13.3194 10.7428 14.2082 10.8663 15.1014C10.9183 15.476 11.0277 15.8326 11.1891 16.1611C9.70165 16.8743 8.66703 18.438 8.66703 20.2492V22.4991C8.66703 24.9807 10.6106 26.9989 13.0005 26.9989H16.2507V19.1242C16.2507 18.5167 16.7144 18.0229 17.2929 18.0004C17.3124 18.0004 17.333 18.0004 17.3525 18.0004C17.9418 18.0116 18.4164 18.51 18.4164 19.1253V27H21.6665C24.0564 27 26 24.9818 26 22.5002V20.2503C26 18.4402 24.9654 16.8765 23.4779 16.1622L23.479 16.1611ZM13.8012 15.7493C13.6679 15.6852 13.5444 15.6098 13.4339 15.5232C13.2031 15.3444 13.0525 15.08 13.0114 14.7841C12.9702 14.486 13.0428 14.1902 13.2161 13.9505C13.3906 13.7098 13.6441 13.5534 13.9301 13.5107C14.2161 13.4679 14.501 13.5444 14.7339 13.7244C15.3991 14.2419 15.7794 15.0631 15.9939 15.7493H13.8001H13.8012ZM21.6567 14.7841C21.6156 15.0811 21.4661 15.3444 21.2331 15.5255C21.1237 15.6098 21.0013 15.6852 20.8691 15.7493H18.6742C18.8887 15.0631 19.269 14.2419 19.9342 13.7244C20.1649 13.5444 20.4488 13.4668 20.738 13.5107C21.024 13.5534 21.2776 13.7098 21.4509 13.9494C21.6253 14.1902 21.6979 14.4871 21.6567 14.7841ZM6.50027 20.2492V22.4991C6.50027 24.2259 7.12863 25.8042 8.16001 26.9989H5.41689C2.42568 26.9989 0 24.4801 0 21.3741V10.1246C0 7.01858 2.42568 4.49981 5.41689 4.49981H6.05175L4.65094 3.04525C4.22734 2.60539 4.22734 1.89442 4.65094 1.45456C5.07454 1.01471 5.75924 1.01471 6.18284 1.45456L7.58365 2.90913V1.12495C7.58365 0.502854 8.069 0 8.66703 0C9.26505 0 9.75041 0.502854 9.75041 1.12495V2.90913L11.1512 1.45456C11.5748 1.01471 12.2595 1.01471 12.6831 1.45456C13.1067 1.89442 13.1067 2.60539 12.6831 3.04525L11.2823 4.49981H11.9291C14.917 4.49981 17.3416 7.01296 17.346 10.1156L17.3341 10.1246C16.1781 9.22462 14.7524 8.84213 13.3191 9.057C11.8868 9.26849 10.6193 10.0481 9.75041 11.2495C8.92704 12.3902 8.55544 13.7829 8.6952 15.197C7.32472 16.4603 6.50027 18.2951 6.50027 20.2492Z" fill="#FD5039"/>
</svg>
