<svg width="15" height="16" viewBox="0 0 15 16" fill="none" xmlns="http://www.w3.org/2000/svg">
    <path d="M14.7263 13.4044L11.8228 10.4997C13.9953 7.59648 13.4029 3.48176 10.4997 1.30925C7.59648 -0.863263 3.48176 -0.27089 1.30925 2.63234C-0.863263 5.53557 -0.27089 9.65029 2.63234 11.8228C4.96445 13.5679 8.16756 13.5679 10.4997 11.8228L13.4044 14.7275C13.7694 15.0925 14.3612 15.0925 14.7262 14.7275C15.0913 14.3625 15.0913 13.7706 14.7262 13.4057L14.7263 13.4044ZM6.59023 11.2622C4.00998 11.2622 1.91829 9.17048 1.91829 6.59023C1.91829 4.00998 4.00998 1.91829 6.59023 1.91829C9.17048 1.91829 11.2622 4.00998 11.2622 6.59023C11.2594 9.16931 9.16934 11.2594 6.59023 11.2622Z" fill="#4C4C4E"/>
</svg>
